<svg aria-hidden="true" style="position: absolute; width: 0; height: 0; overflow: hidden;" version="1.1" xmlns="http://www.w3.org/2000/svg" xmlns:xlink="http://www.w3.org/1999/xlink">
<defs>
<symbol id="icon-search" viewBox="0 0 32 32">
<path d="M25.253 23.026l6.747 6.745-2.229 2.229-6.745-6.747c-2.51 2.012-5.632 3.106-8.848 3.102-7.826 0-14.177-6.352-14.177-14.177s6.351-14.177 14.177-14.177c7.826 0 14.177 6.351 14.177 14.177 0.004 3.217-1.090 6.338-3.102 8.848zM22.093 21.857c1.999-2.056 3.116-4.812 3.111-7.679 0-6.093-4.935-11.027-11.027-11.027-6.093 0-11.027 4.934-11.027 11.027 0 6.092 4.934 11.027 11.027 11.027 2.868 0.004 5.624-1.112 7.679-3.111l0.236-0.236z"></path>
<symbol id="icon-calendar" viewBox="0 0 24 24">
<path d="M7 2v1h-2c-0.828 0-1.58 0.337-2.121 0.879s-0.879 1.293-0.879 2.121v14c0 0.828 0.337 1.58 0.879 2.121s1.293 0.879 2.121 0.879h14c0.828 0 1.58-0.337 2.121-0.879s0.879-1.293 0.879-2.121v-14c0-0.828-0.337-1.58-0.879-2.121s-1.293-0.879-2.121-0.879h-2v-1c0-0.552-0.448-1-1-1s-1 0.448-1 1v1h-6v-1c0-0.552-0.448-1-1-1s-1 0.448-1 1zM20 9h-16v-3c0-0.276 0.111-0.525 0.293-0.707s0.431-0.293 0.707-0.293h2v1c0 0.552 0.448 1 1 1s1-0.448 1-1v-1h6v1c0 0.552 0.448 1 1 1s1-0.448 1-1v-1h2c0.276 0 0.525 0.111 0.707 0.293s0.293 0.431 0.293 0.707zM4 11h16v9c0 0.276-0.111 0.525-0.293 0.707s-0.431 0.293-0.707 0.293h-14c-0.276 0-0.525-0.111-0.707-0.293s-0.293-0.431-0.293-0.707z"></path>
</symbol>
<symbol id="icon-arrow--right" viewBox="0 0 38 32">
<path d="M21.339 0.52c-0.68 0.694-0.68 1.816 0.005 2.506l7.766 7.849 0.179 0.159c0.686 0.528 1.665 0.473 2.288-0.163 0.34-0.347 0.51-0.798 0.51-1.249 0-0.456-0.17-0.909-0.514-1.257l-7.764-7.849-0.179-0.158c-0.686-0.526-1.667-0.472-2.29 0.163zM1.527 14.242c-0.86 0.109-1.527 0.855-1.527 1.758 0 0.978 0.782 1.771 1.745 1.771h30.683l-11.085 11.202-0.157 0.181c-0.523 0.693-0.471 1.689 0.152 2.325 0.68 0.692 1.785 0.694 2.467 0.005l14.080-14.23 0.155-0.178c0.236-0.312 0.359-0.692 0.359-1.076 0-0.229-0.044-0.458-0.133-0.676-0.27-0.664-0.905-1.096-1.613-1.096l-35.128 0.014z"></path>
</symbol>
<symbol id="icon-arrow--left" viewBox="0 0 38 32">
<path d="M17.061 0.52c0.68 0.694 0.68 1.816-0.005 2.506l-7.766 7.849-0.179 0.159c-0.686 0.528-1.665 0.473-2.288-0.163-0.34-0.347-0.51-0.798-0.51-1.249 0-0.456 0.17-0.909 0.514-1.257l7.764-7.849 0.179-0.158c0.686-0.526 1.667-0.472 2.29 0.163zM36.873 14.242c0.86 0.109 1.527 0.855 1.527 1.758 0 0.978-0.782 1.771-1.746 1.771h-30.683l11.085 11.202 0.157 0.181c0.523 0.693 0.471 1.689-0.152 2.325-0.68 0.692-1.785 0.694-2.467 0.005l-14.080-14.23-0.155-0.178c-0.236-0.312-0.359-0.692-0.359-1.076 0-0.229 0.044-0.458 0.133-0.675 0.27-0.664 0.905-1.096 1.613-1.096l35.128 0.014z"></path>
</symbol>
</defs>



</svg>

